<!--?xml version="1.0" standalone="no"?-->

<svg version="1.0" xmlns="http://www.w3.org/2000/svg" width="500.000000pt" height="500.000000pt" viewBox="0 0 500.000000 500.000000" preserveAspectRatio="xMidYMid meet">

<g transform="translate(0.000000,500.000000) scale(0.100000,-0.100000)" fill="#000000" stroke="none">
<path d="M2270 4966 c-105 -41 -224 -100 -267 -132 -17 -13 -33 -24 -35 -24
-2 0 -1 22 0 50 6 77 -13 75 -112 -14 -47 -42 -89 -76 -93 -77 -5 0 -42 -2
-83 -3 -116 -3 -200 -58 -255 -167 l-26 -50 -113 3 c-111 3 -113 3 -156 -27
-25 -16 -138 -122 -252 -233 l-207 -204 -33 -86 -32 -87 -191 -190 c-205 -205
-238 -249 -287 -388 -37 -103 -51 -169 -93 -435 l-33 -212 58 -118 c67 -134
121 -288 146 -416 17 -84 17 -89 0 -101 -9 -7 -26 -10 -38 -7 -21 5 -21 3 -15
-89 6 -106 5 -101 159 -447 97 -218 167 -391 202 -497 12 -39 23 -53 45 -62
40 -15 58 -46 76 -133 33 -158 120 -287 230 -340 40 -20 71 -25 170 -30 126
-6 139 -10 217 -67 60 -43 136 -70 224 -79 59 -6 89 -18 204 -77 74 -38 168
-90 208 -115 64 -39 77 -43 98 -33 23 10 24 9 24 -26 l0 -36 63 7 c308 32 477
32 617 0 41 -10 91 -16 110 -14 42 3 73 3 250 -6 118 -5 147 -3 237 17 l103
22 23 -21 c15 -14 36 -22 59 -22 32 0 37 3 40 27 4 38 41 55 101 48 l47 -6 0
51 c0 49 2 52 88 145 49 53 105 108 126 122 l37 27 44 -44 c33 -32 45 -39 45
-27 0 27 -24 79 -53 113 -15 18 -27 36 -27 41 0 10 96 43 126 43 11 0 30 -7
43 -16 23 -16 23 -16 11 6 -20 37 14 61 95 69 76 8 92 21 102 84 4 27 24 60
70 115 155 186 272 381 373 618 33 78 60 144 60 148 0 19 -107 -85 -159 -153
-51 -67 -61 -76 -88 -75 -29 2 -32 -2 -42 -42 -14 -53 -26 -59 -16 -7 6 35 6
36 -13 22 -11 -8 -134 -100 -273 -205 -255 -193 -592 -429 -661 -465 -49 -25
-67 -24 -99 7 l-28 27 -36 -31 c-39 -34 -65 -33 -65 3 0 19 -6 24 -37 27 -36
4 -63 -10 -76 -43 -5 -11 -8 -10 -17 4 -18 28 -30 20 -31 -20 0 -21 -3 -32 -6
-25 -7 18 -31 15 -45 -8 -12 -18 -15 -17 -56 28 -23 26 -38 37 -32 25 15 -31
13 -56 -4 -50 -14 6 -26 -12 -26 -38 0 -8 -19 -32 -42 -54 -33 -31 -51 -41
-78 -41 -45 0 -216 -27 -255 -40 -20 -7 -45 -7 -82 1 -76 17 -108 61 -107 144
0 33 8 80 17 105 10 25 20 77 23 117 l7 72 43 -1 c34 -2 49 3 67 20 l22 23
-25 20 c-63 49 -81 73 -75 97 5 20 3 23 -9 18 -9 -3 -23 -9 -32 -12 -11 -5
-15 -2 -14 12 1 10 2 23 1 28 -1 11 -61 -43 -61 -55 0 -4 -17 -33 -39 -65 -21
-33 -42 -72 -47 -87 -7 -22 -22 -33 -65 -51 -110 -44 -156 -94 -166 -176 -3
-28 -9 -53 -14 -55 -16 -10 -111 18 -138 41 -16 13 -31 24 -34 24 -13 0 -16
-66 -3 -91 13 -26 13 -29 -2 -29 -39 0 -169 43 -245 81 -110 55 -112 57 -83
80 23 18 39 53 28 63 -3 4 -13 -1 -22 -9 -9 -8 -39 -19 -66 -24 l-49 -9 -115
111 c-63 62 -200 191 -303 287 -205 190 -404 400 -444 467 -13 23 -53 110 -88
193 -35 84 -66 154 -68 157 -3 2 -14 0 -25 -6 -17 -9 -24 -7 -41 15 -36 46
-23 102 21 91 l25 -7 -23 158 c-31 211 -31 243 6 320 28 59 32 87 65 385 38
345 64 475 120 608 98 232 221 386 557 699 127 118 151 136 355 256 461 271
598 319 948 331 179 6 180 6 207 34 25 25 28 35 28 94 0 57 -2 66 -16 61 -19
-7 -74 15 -93 37 -11 14 -32 17 -110 17 -85 -1 -106 -5 -181 -34z m-1805
-3274 c16 -37 33 -73 38 -79 15 -21 -7 -15 -37 8 -16 13 -26 30 -26 47 0 15
-9 47 -20 71 -25 54 -25 58 -1 37 10 -9 31 -47 46 -84z m-98 43 c7 -21 11 -40
9 -42 -8 -8 -57 67 -51 77 12 19 28 5 42 -35z m2007 -1223 c10 -35 16 -66 13
-68 -2 -2 -15 6 -29 18 -14 13 -33 28 -42 33 -16 9 -15 13 4 54 12 24 25 39
29 35 5 -5 16 -38 25 -72z m-259 -12 c3 -5 -3 -10 -15 -10 -12 0 -18 5 -15 10
3 6 10 10 15 10 5 0 12 -4 15 -10z" style="fill: rgb(255, 255, 255);"></path>
<path d="M3243 4873 c-75 -3 -84 -6 -105 -31 -22 -26 -26 -27 -115 -24 -89 3
-92 3 -124 -26 -28 -25 -34 -37 -34 -71 0 -100 133 -187 329 -215 81 -11 101
-19 181 -66 129 -76 323 -208 587 -396 253 -181 254 -181 338 -139 l50 25 0
-44 c0 -66 18 -140 56 -230 36 -86 57 -113 122 -158 59 -40 85 -96 85 -178 -1
-36 -6 -78 -12 -94 -10 -26 -7 -37 36 -114 30 -55 75 -114 121 -161 60 -62 72
-80 72 -108 0 -39 22 -53 53 -34 19 13 20 11 14 -40 -14 -125 -18 -227 -9
-269 l9 -45 7 80 c13 128 43 295 69 377 26 82 16 96 -23 33 -40 -65 -46 -55
-54 95 -3 77 -18 229 -32 339 l-25 201 -251 403 c-139 221 -274 428 -301 459
-132 155 -372 304 -615 382 -103 33 -256 59 -322 54 -14 -1 -62 -4 -107 -5z" style="fill: rgb(255, 255, 255);"></path>
<path d="M3398 3599 c2 -46 10 -97 18 -113 8 -16 14 -45 14 -64 0 -27 9 -45
40 -78 35 -39 40 -49 40 -93 0 -29 -6 -55 -14 -64 -11 -10 -58 -16 -178 -21
-89 -4 -219 -12 -288 -18 -70 -6 -396 -11 -740 -13 -660 -2 -759 -7 -1066 -60
-159 -27 -181 -34 -208 -64 -23 -25 -18 -58 23 -144 16 -34 32 -72 35 -84 4
-12 24 -30 45 -40 36 -17 37 -19 37 -73 -1 -30 3 -67 7 -82 8 -24 6 -27 -25
-33 -37 -8 -68 -31 -68 -51 0 -7 -10 -14 -22 -16 -37 -5 -49 -95 -24 -180 8
-25 12 -55 9 -66 -6 -26 24 -47 107 -73 53 -17 106 -23 290 -30 124 -4 240
-13 259 -18 24 -7 38 -7 47 0 9 7 18 5 33 -10 12 -12 24 -21 29 -21 13 0 43
40 37 50 -4 6 -2 10 2 10 5 0 14 -15 22 -32 12 -32 13 -32 21 -10 11 27 26 28
40 2 8 -16 15 -18 29 -10 12 6 30 6 52 0 36 -11 1422 -5 1579 6 47 3 141 16
210 29 174 33 175 35 192 320 18 310 16 512 -5 572 -20 58 -62 101 -127 129
-34 15 -40 22 -35 39 17 58 16 91 -7 135 -21 41 -33 50 -133 100 -102 51 -111
58 -119 91 -6 25 -4 51 7 89 9 30 14 56 11 59 -2 3 -19 -10 -37 -27 -23 -22
-43 -32 -65 -32 -18 0 -32 3 -32 8 0 4 -11 20 -23 36 l-24 29 5 -84z m52 -45
c0 -2 -7 -4 -15 -4 -8 0 -15 4 -15 10 0 5 7 7 15 4 8 -4 15 -8 15 -10z m-1780
-682 c73 -36 91 -141 32 -193 l-29 -26 29 -12 c38 -17 58 -59 58 -120 0 -91
-58 -131 -187 -131 -63 0 -63 0 -63 29 0 28 1 28 70 33 87 7 110 24 110 81 0
60 -21 77 -92 77 -57 0 -58 0 -58 29 0 26 4 29 46 36 57 8 84 34 84 79 0 73
-95 102 -151 47 l-29 -29 0 -191 0 -191 -35 0 -35 0 0 180 c0 188 7 228 48
274 41 46 139 60 202 28z m1450 -237 l0 -245 -92 0 c-120 0 -158 11 -201 59
-111 123 5 324 163 281 35 -10 40 -14 40 -41 0 -27 -2 -30 -22 -22 -45 16 -97
8 -124 -18 -31 -31 -42 -96 -24 -139 18 -43 57 -60 135 -60 l65 0 0 215 0 215
30 0 30 0 0 -245z m171 209 c17 -21 0 -49 -31 -49 -31 0 -48 28 -31 49 8 9 21
16 31 16 10 0 23 -7 31 -16z m240 -114 c48 0 49 -1 49 -30 0 -29 -1 -30 -50
-30 l-50 0 0 -85 c0 -78 2 -88 25 -110 13 -14 36 -25 50 -25 21 0 25 -4 25
-31 0 -31 0 -32 -41 -25 -57 9 -93 30 -107 61 -7 14 -12 68 -12 120 l0 95 -32
0 -32 0 59 60 60 61 3 -31 c3 -29 5 -30 53 -30z m-1202 -19 c43 -30 49 -102
12 -145 -23 -27 -74 -46 -121 -46 -35 0 -40 3 -40 24 0 21 6 24 50 30 34 5 53
13 60 26 33 62 -27 103 -99 66 -34 -18 -51 -54 -51 -110 0 -80 71 -131 146
-106 32 11 38 10 56 -8 l21 -20 -34 -18 c-48 -25 -126 -23 -178 6 -95 54 -108
200 -26 280 53 51 149 61 204 21z m303 23 c57 -10 88 -44 88 -97 0 -75 -53
-117 -147 -117 -28 0 -33 4 -33 23 0 20 7 25 47 33 36 7 51 16 62 36 14 24 14
28 -3 47 -28 31 -81 28 -116 -7 -59 -60 -47 -161 23 -196 33 -16 44 -17 83 -7
48 12 74 4 74 -24 0 -36 -139 -51 -197 -22 -64 33 -96 119 -79 209 9 47 53 96
101 113 47 17 49 17 97 9z m-592 -34 c0 -30 0 -30 -57 -30 -88 0 -93 -8 -93
-157 l0 -123 -30 0 -30 0 0 124 c0 69 4 136 10 150 16 42 66 66 138 66 l62 0
0 -30z m1258 -137 l-3 -168 -30 0 -30 0 -3 138 -3 137 -24 0 c-29 0 -29 0 -13
35 10 22 17 25 60 25 l48 0 -2 -167z" style="fill: rgb(255, 255, 255);"></path>
<path d="M1816 1962 c-3 -6 -1 -14 5 -17 15 -10 25 3 12 16 -7 7 -13 7 -17 1z" style="fill: rgb(255, 255, 255);"></path>
<path d="M1160 1890 c0 -73 17 -98 22 -32 4 46 22 45 26 -3 5 -54 24 -42 20
13 -3 41 -6 47 -25 46 -18 0 -23 5 -23 23 0 13 -4 23 -10 23 -6 0 -10 -30 -10
-70z" style="fill: rgb(255, 255, 255);"></path>
<path d="M1870 1906 c0 -61 7 -86 24 -86 7 0 10 22 8 70 -3 52 -7 70 -18 70
-10 0 -14 -14 -14 -54z" style="fill: rgb(255, 255, 255);"></path>
<path d="M1006 1908 c9 -74 14 -88 28 -88 8 0 18 19 24 48 8 40 10 42 11 15 3
-77 36 -88 46 -15 4 26 9 55 12 66 3 12 1 17 -8 14 -8 -3 -16 -22 -19 -44 -4
-29 -7 -35 -13 -21 -4 10 -7 30 -7 43 0 14 -6 24 -14 24 -10 0 -18 -18 -24
-52 -9 -48 -10 -50 -11 -16 -1 43 -10 68 -22 68 -5 0 -7 -19 -3 -42z" style="fill: rgb(255, 255, 255);"></path>
<path d="M1600 1940 c0 -5 7 -10 15 -10 12 0 15 -13 15 -55 0 -30 5 -55 10
-55 6 0 10 25 10 55 0 42 3 55 15 55 8 0 15 5 15 10 0 6 -18 10 -40 10 -22 0
-40 -4 -40 -10z" style="fill: rgb(255, 255, 255);"></path>
<path d="M2085 1898 c9 -69 12 -78 28 -78 9 0 18 16 22 43 l8 42 6 -40 c4 -27
12 -41 24 -43 11 -2 17 3 18 15 0 10 4 39 8 66 6 36 5 47 -6 47 -9 0 -13 -13
-13 -41 0 -24 -4 -38 -10 -34 -5 3 -10 22 -10 41 0 56 -27 43 -38 -18 -9 -48
-10 -50 -11 -16 -1 43 -10 68 -22 68 -6 0 -7 -22 -4 -52z" style="fill: rgb(255, 255, 255);"></path>
<path d="M2508 1938 c-2 -7 -4 -35 -3 -63 l0 -50 48 -2 c34 -1 45 2 40 10 -4
7 -6 23 -5 37 2 23 2 24 -12 7 -12 -16 -14 -16 -20 -1 -3 9 -2 22 4 29 6 7 8
20 4 29 -7 19 -50 22 -56 4z m32 -20 c0 -18 -2 -20 -9 -8 -6 8 -7 18 -5 22 9
14 14 9 14 -14z m8 -72 c3 -12 -1 -17 -10 -14 -7 3 -15 13 -16 22 -3 12 1 17
10 14 7 -3 15 -13 16 -22z" style="fill: rgb(255, 255, 255);"></path>
<path d="M2690 1885 c0 -37 4 -65 10 -65 6 0 10 14 10 30 0 20 5 30 15 30 10
0 15 -10 15 -30 0 -20 5 -30 15 -30 12 0 15 14 15 65 0 51 -3 65 -15 65 -9 0
-15 -9 -15 -25 0 -16 -6 -25 -15 -25 -9 0 -15 9 -15 25 0 14 -4 25 -10 25 -6
0 -10 -28 -10 -65z" style="fill: rgb(255, 255, 255);"></path>
<path d="M3332 1938 c-16 -16 -16 -90 0 -106 15 -15 58 -16 58 -1 0 6 -6 9
-14 6 -22 -9 -38 18 -34 55 2 25 8 34 26 36 12 2 22 8 22 13 0 13 -44 11 -58
-3z" style="fill: rgb(255, 255, 255);"></path>
<path d="M3098 1928 c-3 -7 -3 -34 0 -60 3 -39 8 -48 23 -48 10 0 19 5 19 10
0 6 -4 10 -10 10 -15 0 -12 58 2 62 9 3 8 9 -4 21 -20 20 -25 21 -30 5z" style="fill: rgb(255, 255, 255);"></path>
<path d="M3947 1928 c-2 -7 -1 -33 2 -58 5 -39 10 -45 31 -48 22 -2 23 -1 8 8
-21 13 -24 65 -5 74 9 5 9 7 -1 12 -6 3 -10 10 -6 15 3 5 -1 9 -9 9 -8 0 -17
-6 -20 -12z" style="fill: rgb(255, 255, 255);"></path>
<path d="M2372 1923 c-22 -4 -46 -35 -35 -46 3 -4 6 -17 7 -29 1 -16 8 -24 24
-26 23 -4 29 -16 12 -27 -6 -4 -18 -1 -26 6 -17 14 -33 4 -17 -12 6 -6 23 -9
39 -7 40 4 47 44 9 54 l-26 6 23 12 c16 8 23 21 24 44 1 17 -1 31 -5 31 -3 -1
-16 -4 -29 -6z m8 -38 c0 -8 -4 -15 -10 -15 -5 0 -10 7 -10 15 0 8 5 15 10 15
6 0 10 -7 10 -15z" style="fill: rgb(255, 255, 255);"></path>
<path d="M1270 1901 c-13 -26 -13 -54 2 -69 15 -15 58 -16 58 -2 0 6 -7 10
-16 8 -10 -2 -19 3 -21 10 -3 7 5 12 21 12 14 0 26 5 26 11 0 22 -22 49 -40
49 -11 0 -24 -9 -30 -19z m40 -11 c0 -5 -4 -10 -10 -10 -5 0 -10 5 -10 10 0 6
5 10 10 10 6 0 10 -4 10 -10z" style="fill: rgb(255, 255, 255);"></path>
<path d="M1370 1869 c0 -27 5 -49 10 -49 6 0 10 13 10 29 0 16 7 36 15 45 20
20 19 24 -10 24 -23 0 -25 -4 -25 -49z" style="fill: rgb(255, 255, 255);"></path>
<path d="M1454 1896 c-11 -45 -1 -71 29 -74 15 -2 27 1 27 6 0 5 -7 9 -16 8
-9 0 -19 5 -21 12 -3 7 5 12 21 12 18 0 26 5 26 18 0 43 -56 58 -66 18z m46
-6 c0 -5 -7 -10 -15 -10 -8 0 -15 5 -15 10 0 6 7 10 15 10 8 0 15 -4 15 -10z" style="fill: rgb(255, 255, 255);"></path>
<path d="M1710 1910 c0 -5 9 -10 20 -10 11 0 20 -4 20 -9 0 -5 -9 -11 -20 -14
-13 -3 -20 -14 -20 -31 0 -23 4 -25 34 -24 33 1 34 2 29 37 -2 20 -6 42 -9 49
-4 14 -54 17 -54 2z m31 -73 c-8 -8 -11 -7 -11 4 0 9 3 19 7 23 4 4 9 2 11 -4
3 -7 -1 -17 -7 -23z" style="fill: rgb(255, 255, 255);"></path>
<path d="M1810 1870 c0 -38 4 -50 15 -50 11 0 15 12 15 50 0 38 -4 50 -15 50
-11 0 -15 -12 -15 -50z" style="fill: rgb(255, 255, 255);"></path>
<path d="M1947 1913 c-14 -13 -6 -43 13 -53 22 -12 17 -35 -6 -26 -8 3 -14 1
-14 -4 0 -6 11 -10 25 -10 35 0 44 28 17 51 -26 20 -28 29 -7 29 8 0 15 5 15
10 0 11 -33 14 -43 3z" style="fill: rgb(255, 255, 255);"></path>
<path d="M2240 1911 c0 -6 9 -11 20 -11 27 0 25 -13 -2 -25 -13 -6 -23 -19
-23 -30 0 -16 7 -20 33 -21 l33 -1 -3 46 c-3 42 -5 46 -30 49 -16 2 -28 -1
-28 -7z m40 -59 c0 -13 -12 -22 -22 -16 -10 6 -1 24 13 24 5 0 9 -4 9 -8z" style="fill: rgb(255, 255, 255);"></path>
<path d="M2809 1893 c-14 -38 3 -73 36 -73 14 0 25 5 25 10 0 6 -7 10 -16 8
-10 -2 -19 3 -21 10 -3 7 5 12 21 12 18 0 26 5 26 18 0 46 -55 57 -71 15z m46
-3 c3 -5 -1 -10 -9 -10 -9 0 -16 5 -16 10 0 6 4 10 9 10 6 0 13 -4 16 -10z" style="fill: rgb(255, 255, 255);"></path>
<path d="M2920 1910 c0 -5 7 -10 15 -10 22 0 18 -17 -5 -23 -13 -3 -20 -14
-20 -31 0 -23 4 -25 35 -24 33 1 35 3 35 38 0 20 -5 41 -12 48 -15 15 -48 16
-48 2z m26 -77 c-11 -11 -19 6 -11 24 8 17 8 17 12 0 3 -10 2 -21 -1 -24z" style="fill: rgb(255, 255, 255);"></path>
<path d="M3018 1869 c-2 -34 1 -49 10 -49 7 0 12 13 12 32 0 17 7 39 15 48 15
16 14 18 -9 18 -22 0 -25 -5 -28 -49z" style="fill: rgb(255, 255, 255);"></path>
<path d="M3177 1913 c-14 -14 -6 -42 14 -48 23 -8 20 -31 -5 -27 -9 2 -16 -2
-16 -8 0 -6 12 -10 28 -8 34 4 44 43 13 53 -27 8 -27 25 0 25 11 0 17 5 14 10
-7 11 -38 13 -48 3z" style="fill: rgb(255, 255, 255);"></path>
<path d="M3428 1895 c-16 -35 3 -75 36 -75 25 0 36 16 36 54 0 48 -53 63 -72
21z m47 -28 c0 -39 -19 -38 -23 2 -3 24 0 32 10 29 7 -3 13 -17 13 -31z" style="fill: rgb(255, 255, 255);"></path>
<path d="M3540 1869 c0 -27 5 -49 10 -49 6 0 10 18 10 40 0 22 5 40 10 40 6 0
10 -18 10 -40 0 -30 4 -40 16 -40 12 0 14 10 12 48 -3 45 -4 47 -35 49 -33 1
-33 1 -33 -48z" style="fill: rgb(255, 255, 255);"></path>
<path d="M3644 1911 c-2 -2 -4 -24 -4 -48 0 -32 4 -43 15 -43 11 0 15 11 15
40 0 22 5 40 10 40 6 0 10 -18 10 -40 0 -22 5 -40 10 -40 6 0 10 22 10 50 0
49 0 49 -31 47 -17 -1 -32 -4 -35 -6z" style="fill: rgb(255, 255, 255);"></path>
<path d="M3762 1908 c-13 -13 -16 -46 -6 -72 7 -18 64 -23 64 -5 0 6 -8 8 -19
4 -12 -3 -21 0 -25 10 -4 11 1 15 20 15 22 0 25 4 22 28 -3 30 -34 42 -56 20z
m38 -18 c0 -5 -7 -10 -16 -10 -8 0 -12 5 -9 10 3 6 10 10 16 10 5 0 9 -4 9
-10z" style="fill: rgb(255, 255, 255);"></path>
<path d="M3859 1893 c-15 -39 3 -73 37 -73 15 0 24 3 20 8 -4 4 -13 7 -19 7
-7 0 -13 15 -15 33 -3 27 0 32 18 32 12 0 18 5 15 10 -13 20 -45 10 -56 -17z" style="fill: rgb(255, 255, 255);"></path>
</g>
</svg>
